<?xml version="1.0" encoding="utf-8"?>
<!-- Generator: Adobe Illustrator 27.5.0, SVG Export Plug-In . SVG Version: 6.00 Build 0)  -->
<svg version="1.1" xmlns="http://www.w3.org/2000/svg" xmlns:xlink="http://www.w3.org/1999/xlink" x="0px" y="0px"
	 viewBox="0 0 1500 1000" style="enable-background:new 0 0 1500 1000;" xml:space="preserve">
<g id="Bg">
	<rect y="0" style="fill:#FCF8F4;" width="1500" height="1000"/>
</g>
<g id="Objects">
	<g>
		<path style="fill:#BE9E84;" d="M361.314,0c-39.361,28.377-72.67,64.787-117.996,84.411
			c-49.632,21.49-106.925,24.536-158.854,9.446C51.994,84.422,23.519,67.804,0,46.249v35.143
			c56.192,41.389,129.594,60.746,205.585,45.233c41.487-8.47,77.895-27.558,110.937-53.28C349.434,47.725,380.334,15.07,420.205,0
			H361.314z"/>
		<path style="fill:#BE9E84;" d="M884.457,496.796c-48.437-5.854-95.433,9.769-142.626,17.734
			c-52.064,8.788-103.385,1.37-148.258-27.15c-87.857-55.839-113.059-174.228-57.474-261.176
			c23.264-36.39,56.835-67.684,64.28-111.839c5.833-34.599-3.667-70.764-25.136-98.674C570.824,9.946,566.097,4.729,561.119,0
			h-54.78c22.949,8.915,42.791,25.104,54.843,47.803c27.433,51.67-0.876,96.101-31.921,137.613
			c-51.981,69.507-69.87,156.481-31.626,237.161c34.467,72.714,111.946,121.567,192.937,124.885
			c52.476,2.15,102.019-17.773,153.756-22.133c56.947-4.797,105.106,19.85,145.971,57.298
			c69.789,63.953,109.735,158.202,106.498,252.097c-2.027,58.807-21.884,116.239-54.705,165.276h34.742
			c19.634-32.82,34.066-68.629,42.036-105.721c17.289-80.458,3.621-165.203-34.982-237.856
			C1044.851,582.954,971.935,507.37,884.457,496.796z"/>
		<path style="fill:#9D9684;" d="M221.168,763.808c66.526,5.518,103.912,46.971,116.439,110.377
			c6.485,32.825,1.672,65.931-25.433,88.375c-23.369,19.35-53.957,28.153-82.477,37.322c-0.123,0.04-0.246,0.079-0.368,0.118h79.663
			c4.512-2.595,8.917-5.348,13.182-8.301c74.67-51.698,53.705-174.771-11.391-226.751c-33.875-27.05-78.922-30.989-120.88-31.341
			c-49.342-0.413-96.864,1.73-143.946-15.621C29.886,712.063,14.513,704.59,0,695.789v33.19
			c22.992,12.291,47.581,21.648,73.146,27.199C122.075,766.801,171.723,759.707,221.168,763.808z"/>
		<path style="fill:#CCCCCC;" d="M202.701,881.726c42.61,64.759-59.28,84.78-100.429,89.971
			c-32.343,4.081-62.571,13.533-89.845,28.302h43.847c39.091-10.878,80.543-9.208,118.58-24.904
			c31.248-12.894,59.279-41.648,53.05-77.436c-15.877-91.209-155.897-75.918-221.13-82.771c-2.275-0.239-4.529-0.522-6.773-0.826
			v16.099c24.312,3.316,49.492,4.619,75.215,5.919C117.907,838.237,176.552,841.984,202.701,881.726z"/>
		<path style="fill:#BE9E84;" d="M75.309,899.98C61.455,875.689,27.25,877.413,0,878.818v17.025
			c13.13-0.945,26.589-1.794,38.425,1.341c16.969,1.772,20.222,15.086,9.761,39.942c-10.278,5.249-21.22,7.965-32.824,8.147
			c-5.109,0.551-10.244,0.824-15.362,1.283v18.495c8.223-1.227,16.684-2.195,25.463-3.334
			C53.857,958.034,94.481,933.598,75.309,899.98z"/>
		<path style="fill:#4F5657;" d="M231.568,821.704c37.898,23.692,68.237,71.832,44.462,115.507
			c-16.509,30.326-52.367,42.917-84.288,50.668c-20.074,4.874-40.443,8.163-60.673,12.122h31.312
			c11.638-2.195,23.248-4.534,34.74-7.464c28.188-7.187,58.449-18.26,76.915-41.694c19.97-25.343,20.103-59.038,5.841-87.115
			c-16.652-32.784-50.041-52.906-83.754-65.529C133.294,774.672,63.918,773.141,0,753.888v5.426
			c37.688,11.102,77.66,16.792,116.233,24.087C155.839,790.89,197.099,800.156,231.568,821.704z"/>
		<path style="fill:#9D9684;" d="M240.748,219.442c18.671-5.977,37.002-12.969,54.976-20.745
			c10.726-4.641,22.767-12.662,34.141-14.968c11.082-2.247,32.718,2.429,40.862,12.021c3.971,4.675,5.386,14.881,6.725,20.863
			c18.357,81.956-39.936,160.737-38.804,242.508c2.251,162.658,213.995,226.594,348.441,214.993
			c84.851-7.321,192.99-70.358,267.458-4.272c59.539,52.838,60.735,145.921,25.501,211.669
			c-26.696,49.815-67.183,86.268-111.68,118.49h30.05c33.951-26.973,64.713-57.513,87.857-94.22
			c35.142-55.738,46.348-123.286,22.396-185.55c-21.841-56.776-70.012-96.096-132.803-97.621
			c-44.793-1.088-87.712,14.536-130.718,24.565c-45.604,10.635-92.605,13.687-139.206,8.529
			c-85.791-9.495-184.374-47.342-229.52-124.603c-47.459-81.22,5.255-166.878,18.451-249.525
			c8.708-54.539-2.021-142.292-78.714-111.114c-96.741,39.329-199.277,75.804-303.433,37.301c-4.291-1.586-8.535-3.324-12.726-5.2
			v18.23c35.281,14.398,73.988,21.089,113.211,20.689C156.517,241.04,199.663,232.595,240.748,219.442z"/>
		<path style="fill:#66767E;" d="M189.059,340.043c22.248-3.596,47.856-12.229,69.578-1.635
			c19.288,9.408,27.845,30.438,30.949,50.211c5.872,37.399-10.51,72.751-18.133,108.7c-6.878,32.437-6.429,64.295,6.475,95.328
			c57.784,138.964,256.786,148.5,385.535,145.758c38.652-0.823,76.863-6.19,115.425-7.727c36.562-1.457,82.289,1.607,101.182,38.099
			c17.489,33.78,1.062,76.95-22.554,103.409c-26.579,29.778-65.046,46.812-100.274,64.406
			c-35.458,17.709-69.357,38.309-99.091,63.408h39.376c38.499-26.223,81.255-45.544,122.847-69.996
			c50.756-29.84,96.906-78.957,89.543-141.767c-6.812-58.101-61.417-80.358-114.283-81.105
			c-34.609-0.489-69.139,5.248-103.648,7.011c-45.607,2.33-91.39,1.401-136.86-2.779c-82.642-7.597-179.054-22.922-233.642-91.37
			c-27.492-34.472-36.119-73.702-27.282-116.496c6.967-33.737,21.37-66.433,20.348-101.413
			c-1.573-53.869-35.586-96.573-93.166-90.888c-35.61,3.516-69.629,11.678-105.727,11.287c-35.72-0.386-71.327-5.445-105.534-15.658
			c-3.402-1.015-6.772-2.1-10.125-3.221v24.184c34.86,10.9,71.633,16.703,107.756,17.781
			C134.982,346.384,162.193,344.386,189.059,340.043z"/>
		<path style="fill:#4F5657;" d="M1464.957,714.724c0.247-0.674,0.283-1.444-0.068-2.246
			c-32.06-73.365-14.068-154.511-13.219-231.455c0.757-68.633-16.427-132.735-67.246-181.898
			c-48.515-46.936-111.659-70.454-177.843-80.324c-38.189-5.695-77.838-9.208-113.42-25.128
			c-34.683-15.517-60.973-43.052-77.881-76.385C996.276,79.82,990.27,40.13,991.507,0h-6.086
			c-0.804,28.046,1.946,56.04,10.203,83.598c9.076,30.297,24.397,59.247,46.837,82.03c24.393,24.765,55.917,38.934,89.662,46.786
			c37.978,8.836,77.253,10.667,115.173,19.787c34.605,8.323,67.829,22.529,97.301,42.289c29.892,20.044,55.926,46.152,73.637,77.355
			c19.556,34.451,26.517,73.355,27.453,112.442c2,83.485-20.694,170.534,13.783,250.336c-0.365,0.741-0.437,1.626,0.096,2.559
			c10.249,17.919,24.292,31.776,40.433,43.04v-7.145C1486.122,742.822,1474.025,730.401,1464.957,714.724z"/>
		<path style="fill:#BE9E84;" d="M1257.664,79.821c-39.447-9.243-84.205-13.276-116.221-40.248
			c-13.228-11.144-22.929-24.646-29.821-39.573h-37.388c2.296,6.437,4.944,12.774,7.984,18.985
			c33.605,68.658,103.135,79.226,171.248,95.721c43.644,10.57,86.385,25.023,127.203,43.581
			c36.391,16.545,79.416,35.275,107.138,64.651c4.694,4.975,8.721,10.296,12.194,15.89V186.37
			c-36.299-31.836-86.053-52.372-128.13-69.716C1334.861,101.397,1296.702,88.968,1257.664,79.821z"/>
		<path style="fill:#9D9684;" d="M1214.802,0h-32.222c15.098,11.482,32.591,20.297,51.952,25.482
			c60.491,16.201,122.404,19.094,182.022,40.517c29.647,10.653,59.556,25.687,83.446,46.141V89.869
			c-42.327-31.156-98.209-49.375-147.79-60.802C1308.474,18.987,1256.491,19.22,1214.802,0z"/>
		<path style="fill:#CCCCCC;" d="M1431.188,0c24.607,9.115,47.94,20.695,68.812,35.269V14.255
			c-7.82-5.111-15.923-9.854-24.244-14.255H1431.188z"/>
		<path style="fill:#4F5657;" d="M1432.914,271.256c-45.654-38.937-102.721-63.592-160.755-78.44
			c-33.102-8.469-66.797-11.57-100.298-17.81c-37.189-6.926-69.165-22.79-93.406-51.924C1048.431,86.999,1036.326,44.359,1033.28,0
			h-6.149c1.98,28.367,7.76,56.263,19.745,82.932c12.383,27.557,30.892,52.81,55.665,70.784c30.928,22.439,68.187,27.27,105.21,32.5
			c120.605,17.038,253.689,74.206,292.249,195.104v-16.478C1485.985,329.163,1463.684,297.499,1432.914,271.256z"/>
		<path style="fill:#9D9684;" d="M85.797,0c61.528,22.766,129.089,18.754,191.631,0H85.797z"/>
		<path style="fill:#9D9684;" d="M1375.133,772.219c-30.813-80.253-12.238-167.758-12.349-250.935
			c-0.082-61.897-9.89-128.32-48.794-178.925c-43.47-56.545-112.988-72.676-180.4-83.778
			c-76.018-12.521-145.084-26.791-203.702-80.062C875.512,129.102,837.458,65.889,792.944,8.37c-2.165-2.797-4.364-5.587-6.583-8.37
			h-30.166c88.473,102.465,146.898,231.488,291.849,266.471c71.046,17.147,153.547,14.947,215.096,58.772
			c67.237,47.875,77.78,137.683,75.805,213.222c-2.37,90.608-18.013,186.042,27.033,269.739
			c28.925,53.743,77.297,95.232,134.021,117.591v-25.353C1443.653,875.593,1397.384,830.171,1375.133,772.219z"/>
		<path style="fill:#4F5657;" d="M932.893,0c-2.869,8.048-7.38,15.436-14.257,21.855C896.401,42.607,865.311,21.986,841.692,0
			h-7.738c5.25,4.841,10.685,9.486,16.353,13.861c13.47,10.396,29.634,22.542,47.582,22.382C919.511,36.05,931.862,19.013,938.186,0
			H932.893z"/>
		<path style="fill:#CCCCCC;" d="M649.748,382.008c33.766,29.782,79.398,34.604,122.848,35.149
			c55.04,0.691,106.921,1.684,158.728,22.391c108.299,43.288,185.177,139.536,217.496,248.426
			c27.727,93.417,33.289,214.987-4.278,312.025h12.051c23.575-65.515,27.745-140.343,22.967-206.585
			c-13.077-181.285-133.866-366.42-330.74-386.053c-55.678-5.552-117.806,7.812-169.338-19.122
			c-46.456-24.28-65.808-76.725-65.454-126.145c0.364-50.882,21.834-109.294,65.482-139.387
			c26.303-18.134,63.287-25.588,92.976-10.755c27.172,13.576,43.016,40.767,59.408,64.777
			c57.059,83.57,133.549,137.248,222.768,183.452c47.884,24.797,97.346,51.613,129.119,96.252
			c30.665,43.084,41.058,95.913,46.784,147.239c11.698,104.854,15.28,204.379,80.641,293.052
			c30.731,41.692,69.576,76.832,113.773,103.275h23.898c-58.558-30.818-108.636-76.804-143.833-133.238
			c-58.018-93.027-50.457-196.776-67.745-300.441c-7.399-44.369-21.397-88.165-49.615-124.144
			c-29.929-38.158-72.4-63.317-114.923-85.713c-49.032-25.825-97.913-50.179-140.581-85.893
			c-44.935-37.609-75.582-82.645-110.233-128.831c-23.988-31.974-55.824-53.555-97.703-48.375
			c-43.639,5.397-77.326,36.089-97.371,73.148C591.435,232.03,589.805,329.137,649.748,382.008z"/>
		<path style="fill:#4F5657;" d="M773.641,374.874c47.342,5.694,92.874,8.236,138.244,24.423
			c46.934,16.744,90.475,42.541,128.347,74.497c79.177,66.809,130.496,159.449,154.706,258.663
			c20.745,85.011,26.549,181.209,3.776,267.542h6.222c12.934-51.431,15.125-106.207,12.143-157.817
			c-10.842-187.604-110.426-374.648-295.207-445.377c-41.851-16.02-84.363-22.047-128.773-25.821
			c-47.71-4.055-104.076-15.123-114.829-69.758c-4.829-24.538,0.084-50.004,8.281-73.316c7.614-21.652,18.315-45.393,35.522-61.395
			c46.902-43.617,85.866,17.968,107.131,53.792c48.284,81.338,124.485,140.022,203.023,191.348
			c41.254,26.961,88.071,49.998,124.93,82.758c42.853,38.086,48.399,91.034,50.326,144.728
			c3.53,98.395,24.71,194.011,79.512,277.766c19.998,30.564,44.018,58.587,71.249,83.092h8.723
			c-17.924-15.566-34.502-32.688-49.465-51.126c-67.973-83.751-99.678-189.328-103.616-295.378
			c-1.704-45.888-1.428-95.996-28.175-135.787c-26.045-38.747-71.854-61.207-110.553-85.537
			c-84.225-52.953-170.618-110.151-227.208-193.233c-20.453-30.028-36.644-75.101-73.499-89.539
			c-39.161-15.341-68.27,21.059-83.097,51.793c-17.207,35.67-30.294,81.563-12.977,119.596
			C695.397,358.168,735.465,370.282,773.641,374.874z"/>
		<path style="fill:#4F5657;" d="M874.734,330.224c-9.613-15.412-26.885-21.248-41.623-30.539
			c-21.329-13.445-27.706-34.976-37.673-56.483c-12.918-27.874-41.755-53.646-72.506-31.298
			c-27.64,20.086-27.894,67.989-7.077,93.057c13.578,16.351,37.406,21.114,56.784,27.249c22.704,7.188,45.409,14.375,68.113,21.563
			c9.461,6.2,23.014,12.255,32.381,7.231C884.235,355.052,879.847,338.42,874.734,330.224z M862.327,355.473
			c-0.303-0.676-0.88-1.249-1.79-1.537c-5.815-1.841-11.631-3.682-17.446-5.523c-1.517-1.034-3.001-2.135-4.451-3.315
			c-1.548-1.26-3.432-0.67-4.439,0.501c-11.905-3.769-23.809-7.538-35.713-11.306c-19.052-6.032-39.071-10.938-57.398-18.897
			c-23.709-10.296-33.886-32.658-33.656-57.46c0.213-22.898,14.969-49.701,41.531-48.861c39.344,1.244,43.885,56.123,63.117,80.099
			c9.157,11.416,21.669,17.403,34.217,24.466c9.4,5.291,19.182,11.517,24.44,21.243C875.591,343.862,871.74,354.648,862.327,355.473
			z"/>
		<path style="fill:#4F5657;" d="M840.799,316.558c-7.376-5.723-16.432-8.904-24.372-13.756
			c-10.651-6.509-20.006-15.267-27.225-25.36c-9.977-13.949-12.82-34.93-27.275-45.403c-9.064-6.567-21.363-7.477-29.261,1.344
			c-10.425,11.643-6.159,29.69-2.567,43.158c4.231,15.86,12.879,27.04,28.039,34.052c19.146,8.856,40.663,14.092,61.044,20.199
			c4.006,2.44,8.013,4.88,12.019,7.32c3.934,2.397,8.746,6.881,13.35,7.458c2.5,0.314,5.255,0.455,7.263-1.521
			C859.847,336.142,846.51,320.989,840.799,316.558z M843.796,338.952l-9.618-5.858c-1.587-0.966-3.174-1.933-4.76-2.899
			c0.078-1.226-0.484-2.492-2.001-2.972c-1.995-0.631-3.99-1.262-5.986-1.893c-2.163-1.317-4.326-2.635-6.489-3.953
			c-1.476-0.899-2.865-0.317-3.667,0.74c-9.557-3.019-19.115-6.035-28.668-9.066c-12.176-3.863-25.924-7.206-35.376-16.276
			c-10.246-9.832-16.278-31.167-15.164-45.047c1.702-21.199,23.253-22.648,33.671-6.952c3.302,4.975,5.286,10.804,7.687,16.189
			c7.723,17.327,18.911,32.138,34.612,43.25c10.109,7.154,23.273,10.833,32.216,19.47
			C845.65,327.53,846.831,332.619,843.796,338.952z"/>
		<path style="fill:#4F5657;" d="M1309.667,488.94c0.014-28.933-7.006-57.771-20.25-83.587
			c-25.613-49.924-76.088-87.133-132.208-96.476c-19.885-3.311-49.793-0.002-52.372,25.184
			c-2.517,24.59,33.173,35.607,49.764,45.544c30.885,18.499,60.56,41.168,79.505,72.064c19.77,32.24,23.635,69.959,24.522,106.893
			c-0.481,0.339-0.879,0.827-1.036,1.589c-2.759,13.384-3.118,26.924,0.169,40.274c2.233,9.07,6.428,24.942,16.427,28.963
			c20.976,8.435,16.792-28.717,17.564-37.533C1294.81,556.934,1309.649,524.357,1309.667,488.94z M1286.517,585.92
			c-0.815,6.303-1.095,12.581-1.114,18.925c-0.02,6.996,1.632,28.44-15.434,11.64c-4.635-4.563-6.374-15.998-7.536-22.385
			c-1.324-7.276-1.413-14.486-0.714-21.693c1.505,0.041,3.028-0.88,3.006-2.792c-0.546-47.927-5.194-96.391-35.823-135.67
			c-12.458-15.977-27.736-29.575-44.148-41.51c-19.046-13.85-40.288-23.597-59.927-36.357c-6.785-4.408-14.419-11.041-14.35-19.961
			c0.111-14.414,16.261-22.054,28.568-22.854c13.53-0.88,28.013,3.048,40.794,7.152c24.428,7.844,47.133,20.973,66.084,38.053
			c38.68,34.862,59.835,86.003,57.715,137.567C1302.372,526.813,1290.441,555.566,1286.517,585.92z"/>
		<path style="fill:#4F5657;" d="M1295.356,493.891c-1.622-43.885-20.402-86.229-52.713-116.58
			c-15.551-14.607-33.835-26.365-53.675-34.485c-10.496-4.296-33.665-15.456-44.391-5.666
			c-20.973,19.144,62.837,54.035,72.598,61.053c42.454,30.523,63.745,84.896,55.093,135.558c-1.311,0.466-2.405,1.692-2.08,3.413
			c1.043,5.512-2.359,14.831,3.995,18.709c4.413,2.694,7.674,0.663,10.632-2.84C1296.42,539.315,1295.977,510.696,1295.356,493.891z
			 M1287.793,524.118c-0.547,3.573-1.163,15.864-4.144,18.24c-5.333,4.251-6.822,2.631-7.294-0.254
			c0.281-0.32,0.512-0.71,0.625-1.235c7.988-37.034,0.773-75.798-19.561-107.933c-9.746-15.403-22.353-29.057-37.265-39.741
			c-18.033-12.919-39.876-19.396-57.801-32.405c-3.398-2.42-6.558-5.106-9.48-8.057c-2.427-11.092,0.369-15.306,8.39-12.641
			c4.104,0.014,9.105,2.316,13.066,3.575c12.672,4.028,24.803,9.611,36.138,16.489c21.374,12.97,39.875,30.651,53.333,51.555
			c14.453,22.448,23.162,48.516,25.256,75.015C1290.039,499.181,1289.685,511.759,1287.793,524.118z"/>
		<path style="fill:#4F5657;" d="M152.722,703.795c57.206,10.36,119.086,0.536,173.638,23.375
			c50.492,21.14,82.977,69.972,94.835,121.424c6.955,30.178,8.595,64.195-3.596,93.263c-10.384,24.759-30.671,43.402-52.974,58.142
			h10.253c1.961-1.413,3.91-2.846,5.835-4.326c18.753-14.419,34.842-32.172,43.479-54.268c9.462-24.208,9.609-51.385,5.964-76.759
			c-6.311-43.94-26.598-87.28-60.491-117.137c-38.083-33.548-87.458-39.991-136.603-42.439
			c-57.619-2.869-111.954-9.575-164.643-34.313C43.664,659.135,20.764,644.724,0,628.031v7.803c3.032,2.346,6.096,4.658,9.218,6.906
			C51.598,673.263,101.074,694.442,152.722,703.795z"/>
		<path style="fill:#CCCCCC;" d="M228.679,382.213c-24.492-25.66-61.063-15.461-91.526-9.311C91.096,382.2,44.111,380.069,0,367.907
			v18.276c19.493,5.066,39.552,8.32,59.935,9.6c18.16,1.14,36.364,0.589,54.427-1.557c21.25-2.525,42.475-10.482,63.826-11.261
			c83.568-3.048,36.643,86.783,18.847,123.977c-7.516,15.709-13.505,31.979-14.347,49.506c-0.67,13.961,4.132,31.624-3.955,44.335
			c-8.311,13.064-24.015,17.465-38.346,19.165c-46.74,5.545-91.158-20.206-123.523-51.099c-5.947-5.677-11.54-11.6-16.865-17.709
			v25.579c40.966,40.762,101.042,75.218,159.041,57.444c27.578-8.451,41.77-28.196,42.001-56.305
			c0.238-28.968,4.403-49.167,17.898-75.035c8.478-16.252,17.801-32.264,22.282-50.138
			C247.128,429.128,246.454,400.835,228.679,382.213z"/>
		<path style="fill:#4F5657;" d="M166.497,448.132c-17.424-13.066-47.979-11.733-68.708-12.79
			c-28.981-1.477-59.002-2.423-85.169-16.273C8.408,416.84,4.215,414.171,0,411.321v7.133c3.148,1.986,6.344,3.893,9.644,5.634
			c19.499,10.285,41.187,13.932,63,15.64c25.677,2.011,53.535,0.125,78.372,7.659c3.847,0.989,7.478,2.507,10.894,4.554l7.304,18.3
			c-0.218,6.518-7.004,13.697-10.736,18.682c-6.08,8.121-10.957,15.306-12.678,25.426c-2.008,11.81,0.72,23.766-0.337,35.612
			c-2.072,23.21-24.532,20.947-41.16,16.421c-26.13-7.112-47.281-24.917-64.669-44.722C25.421,505.473,13.143,487.743,0,470.705
			v9.506c14.136,18.575,27.477,37.85,43.836,54.627c16.271,16.687,36.023,30.865,58.898,37.148
			c13.805,3.791,37.418,8.395,45.39-7.114c4.578-8.909,3.429-20.514,3.133-30.102c-0.556-18,2.799-30.294,13.683-44.684
			C174.556,477.374,181.84,459.637,166.497,448.132z"/>
		<path style="fill:#4F5657;" d="M118.35,474.266c-7.71-5.458-20.659-4.418-29.527-5.406c-17.582-1.958-35.164-3.917-52.746-5.876
			c-3.765-0.419-3.735,5.395,0,5.812c19.536,2.177,39.071,4.353,58.607,6.529c12.254,1.365,24.762,4.23,25.228,18.656
			c0.358,11.069-0.521,22.311-9.907,29.405c-18.099,13.678-37.127-3.405-49.26-16.857c-10.152-11.255-20.014-22.78-29.937-34.24
			c2.23-0.413,3.543-3.815,1.032-5.399c-5.128-3.235-11.025-4.205-16.974-3.086c-3.724,0.701-2.147,6.303,1.568,5.604
			c1.418-0.267,2.81-0.285,4.186-0.195c0.116,0.233,0.201,0.469,0.394,0.69c10.276,11.777,20.541,23.564,30.828,35.332
			c7.454,8.526,15.03,17.643,25.027,23.419c14.702,8.495,35.72,8.098,44.472-8.198C127.415,509.142,130.658,482.979,118.35,474.266z
			"/>
		<path style="fill:#4F5657;" d="M450.056,1000h7.063c2.647-4.56,5.048-9.256,7.133-14.101
			c11.217-26.059,10.647-52.927,8.304-80.667c-2.392-28.331-5.437-59.71,10.296-85.186c16.814-27.227,50.272-31.087,79.325-36.167
			c33.453-5.85,66.877-11.901,100.37-17.528c32.71-5.496,67.695-10.281,100.099-0.45c27.794,8.433,54.96,29.081,61.6,58.237
			c9.472,41.593-39.175,50.066-69.606,55.964c-27.351,5.301-55.521,8.887-81.184,20.221c-24.938,11.014-45.117,29.313-61.972,50.221
			c-12.597,15.625-23.739,32.411-34.393,49.456h7.027c13.078-20.89,26.843-41.564,43.799-59.467
			c23.73-25.056,52.249-39.233,85.977-46.732c28.998-6.447,60.024-8.629,87.565-20.32c53.818-22.843,23.767-82.32-14.997-103.771
			c-55.906-30.938-128.04-8.539-186.731,1.724c-29.434,5.146-62.624,7.219-90.282,19.089c-22.698,9.741-36.391,28.699-41.756,52.174
			c-6.867,30.055,0.453,60.438,0.66,90.715C468.52,957.693,462.056,980.04,450.056,1000z"/>
		<path style="fill:#CCCCCC;" d="M511.117,1000c4.674-9.786,8.649-19.9,11.849-30.268c10.284-33.318,9.563-71.118,28.435-101.518
			c18.993-30.595,54.372-46.141,87.744-56.416c18.647-5.741,38.503-11.589,58.161-11.378c27.163,0.292,58.748,17.369,54.623,46.902
			c-45.75-2.96-94.946-3.487-133.151,25.061c-40.227,30.059-56.208,80.486-81.452,121.585c-1.242,2.021-2.505,4.029-3.776,6.031
			h19.776c17.395-30.952,31.965-63.808,53.964-91.497c37.928-47.738,95.511-47.166,151.663-43.279c3.92,0.271,7.449-2.912,8.531-6.4
			c9.462-30.491-9.803-60.256-39.418-71.029c-38.155-13.879-86.474,2.472-121.889,17.275c-34,14.211-63.473,35.986-78.096,70.377
			c-17.228,40.52-16.117,84.832-36.643,124.552H511.117z"/>
	</g>
</g>
</svg>
